<svg id="Layer_1" data-name="Layer 1" xmlns="http://www.w3.org/2000/svg" viewBox="0 0 1468.98 500"><defs><style>.cls-1{fill:#eaeaea;}.cls-2{fill:#fff;}.cls-3{fill:#dbdbdb;}.cls-4{fill:#ffc933;}</style></defs><polygon class="cls-1" points="229.1 48.65 54.73 149.33 54.73 350.68 229.1 451.35 403.48 350.68 403.48 149.33 229.1 48.65"/><polygon class="cls-2" points="403.48 149.33 229.11 250 229.1 250 54.73 149.33 229.1 48.65 403.48 149.33"/><polygon class="cls-1" points="229.1 250 229.1 451.35 54.73 350.68 54.73 149.33 229.1 250"/><polygon class="cls-3" points="403.48 149.33 403.48 350.68 229.1 451.35 229.1 250 229.11 250 403.48 149.33"/><path class="cls-2" d="M548.94,43.13V58.4H536.27V73.66H510.92V58.4H498.24V43.13H462.67V165.26h35.57V111.83h12.68v15.26h25.35V111.83h12.67v53.43h35.57V43.13Z"/><path class="cls-2" d="M1180.7,182.1v24.78h-20.56v24.77H1119V206.88h-20.57V182.1h-57.73V380.31h57.73V293.59H1119v24.77h41.15V293.59h20.56v86.72h57.72V182.1Z"/><path class="cls-2" d="M503.79,237.85v86.71H631.63V196.7h-169v169h169V345.12H483.23V217.27H611.07V304H590.5V237.85ZM569.94,304H524.35V258.42h45.59Z"/><path class="cls-2" d="M599.67,165.26V43.13h38.17V165.26Z"/><path class="cls-2" d="M654.28,165.26V43.13h38.17V62.21h15.27V81.29h11.45V43.13h38.16V165.26H719.17V146.18H703.9V127.09H692.45v38.17Z"/><path class="cls-2" d="M773.78,165.26V43.13h91.6V73.66H812V88.93h53.43v30.53H812v15.27h53.43v30.53Z"/><path class="cls-2" d="M882.83,165.26V43.13h99.23V73.66H921v61.07h61.07v30.53Z"/><path class="cls-2" d="M998.51,165.26V43.13h91.6v68.7h-11.45v7.63h11.45v45.8h-38.17v-45.8h-15.27v45.8Zm53.43-76.33V73.66h-15.27V88.93Z"/><path class="cls-2" d="M1106.56,165.26V43.13h91.59V165.26H1160V130.91h-15.27v34.35ZM1167.62,108V85.11H1160V77.48h15.26V62.21H1160V77.48h-15.27V62.21h-15.27V77.48h15.27v7.63h-7.63V108h7.63v-7.63H1160V108Z"/><path class="cls-2" d="M1214.6,165.26V43.13h91.6V73.66h-53.43V88.93h53.43v30.53h-53.43v45.8Z"/><path class="cls-2" d="M1349.37,165.26V73.66h-26.72V43.13h91.6V73.66h-26.72v91.6Z"/><polygon class="cls-2" points="756.97 182.1 756.97 256.43 715.6 256.43 715.6 182.1 657.86 182.1 657.86 380.31 715.6 380.31 715.6 305.98 756.97 305.98 756.97 380.31 814.7 380.31 814.7 182.1 756.97 182.1"/><path class="cls-2" d="M840.56,380.31V182.1H1014V380.31Zm111.49-49.56v-99.1H902.5v99.1Z"/><path class="cls-2" d="M1265.59,380.31V182.1h148.66v49.55h-86.72v24.78h86.72V306h-86.72v24.77h86.72v49.56Z"/><path class="cls-4" d="M507.84,456.88v-42h16.82v8.41h-8.41v33.63Zm16.82-16.82V423.25h8.41v16.81Zm8.41-16.81v-8.41h8.41v8.41Zm8.41,33.63V423.25h8.4v33.63Z"/><path class="cls-4" d="M558.29,406.43V398h8.41v8.41Zm0,50.45v-42h8.41v42Z"/><path class="cls-4" d="M575.11,456.88v-42h33.63v8.41H583.52v33.63Zm33.63,0V423.25h8.41v33.63Z"/><path class="cls-4" d="M625.56,448.47V423.25H634v8.41h25.23v-8.41h8.41v16.81H634v8.41Zm8.4-25.22v-8.41h25.23v8.41Zm0,33.63v-8.41H667.6v8.41Z"/><path class="cls-4" d="M676,448.47V423.25h8.41v25.22Zm8.41-25.22v-8.41h25.22v8.41Zm0,33.63v-8.41h25.22v8.41Zm25.22-25.22v-8.41H718v8.41Zm0,16.81v-8.41H718v8.41Z"/><path class="cls-4" d="M726.45,456.88v-42h8.41v8.41h8.41v8.41h-8.41v25.22Zm16.82-33.63v-8.41h16.81v8.41Zm16.81,8.41v-8.41h8.41v8.41Z"/><path class="cls-4" d="M776.9,448.47v-8.41h8.41v8.41Zm8.41-25.22v-8.41h25.22v8.41Zm0,33.63v-8.41h25.22v-8.41H785.31v-8.4h25.22v-8.41h8.41v33.63Z"/><path class="cls-4" d="M835.75,456.88V423.25h-8.4v-8.41h8.4v-8.41h8.41v8.41H861v8.41H844.16v33.63Zm8.41-50.45V398H861v8.41Z"/><path class="cls-4" d="M877.79,448.47V414.84h-8.4v-8.41h8.4V398h8.41v8.41h8.41v8.41H886.2v33.63Zm8.41,8.41v-8.41h8.41v8.41Z"/><path class="cls-4" d="M903,448.47v-8.41h8.4v8.41Zm8.4-25.22v-8.41h25.23v8.41Zm0,33.63v-8.41h25.23v-8.41H911.42v-8.4h25.23v-8.41h8.41v33.63Z"/><path class="cls-4" d="M961.87,448.47V414.84h-8.41v-8.41h8.41V398h8.41v8.41h8.41v8.41h-8.41v33.63Zm8.41,8.41v-8.41h8.41v8.41Z"/><path class="cls-4" d="M987.1,456.88V398h8.4v25.23h8.41v8.41H995.5v25.22Zm16.81-33.63v-8.41h16.82v8.41Zm16.82,33.63V423.25h8.41v33.63Z"/><path class="cls-4" d="M1037.54,448.47V423.25H1046v25.22Zm8.41-25.22v-8.41h25.23v8.41Zm0,33.63v-8.41h25.23v8.41Zm25.23-8.41V423.25h8.4v25.22Z"/><path class="cls-4" d="M1088,456.88v-42h16.82v8.41h-8.41v33.63Zm16.82-16.82V423.25h8.4v16.81Zm8.4-16.81v-8.41h8.41v8.41Zm8.41,33.63V423.25H1130v33.63Z"/><path class="cls-4" d="M1138.44,448.47V423.25h8.41v8.41h25.22v-8.41h8.41v16.81h-33.63v8.41Zm8.41-25.22v-8.41h25.22v8.41Zm0,33.63v-8.41h33.63v8.41Z"/><path class="cls-4" d="M1188.89,456.88V440.06h8.4v16.82Z"/><path class="cls-4" d="M1205.7,448.47V423.25h8.41v25.22Zm8.41-25.22v-8.41h25.22v8.41Zm0,33.63v-8.41h25.22v8.41Zm25.22-25.22v-8.41h8.41v8.41Zm0,16.81v-8.41h8.41v8.41Z"/><path class="cls-4" d="M1256.15,448.47V423.25h8.41v25.22Zm8.41-25.22v-8.41h25.22v8.41Zm0,33.63v-8.41h25.22v8.41Zm25.22-8.41V423.25h8.41v25.22Z"/><path class="cls-4" d="M1306.6,456.88v-42h16.81v8.41H1315v33.63Zm16.81-16.82V423.25h8.41v16.81Zm8.41-16.81v-8.41h8.41v8.41Zm8.41,33.63V423.25h8.41v33.63Z"/></svg>