<svg id="Layer_1" data-name="Layer 1" xmlns="http://www.w3.org/2000/svg" viewBox="0 0 500 500"><defs><style>.cls-1{fill:#212121;}.cls-2{fill:#eaeaea;}.cls-3{fill:#fff;}.cls-4{fill:#dbdbdb;}</style></defs><rect class="cls-1" width="500" height="500"/><polygon class="cls-2" points="250 12.17 44.03 131.09 44.03 368.92 250 487.83 455.96 368.92 455.96 131.09 250 12.17"/><polygon class="cls-3" points="455.96 131.09 250 250 250 250 44.03 131.09 250 12.17 455.96 131.09"/><polygon class="cls-2" points="250 250 250 487.83 44.03 368.92 44.03 131.09 250 250"/><polygon class="cls-4" points="455.96 131.09 455.96 368.92 250 487.83 250 250 250 250 455.96 131.09"/><path class="cls-1" d="M218.61,119.45v15.27H205.94V150H180.59V134.72H167.91V119.45H132.34V241.58h35.57V188.15h12.68v15.26h25.35V188.15h12.67v53.43h35.57V119.45Z"/><path class="cls-1" d="M367.67,150V119.45H271V241.58h96.64V211.05H306.6V150Z"/><polygon class="cls-1" points="332.09 258.42 332.09 304.22 306.6 304.22 306.6 258.42 271.03 258.42 271.03 380.55 306.6 380.55 306.6 334.75 332.09 334.75 332.09 380.55 367.67 380.55 367.67 258.42 332.09 258.42"/><path class="cls-1" d="M165.18,292.77V346.2H244V267.42H139.84V371.54H244V358.87H152.51V280.09h78.77v53.44H218.61V292.77Zm40.76,40.76H177.85V305.45h28.09Z"/></svg>