<svg xmlns="http://www.w3.org/2000/svg" id="Layer_1" data-name="Layer 1" viewBox="0 0 500 500"><defs><style>.cls-1{fill:#eaeaea}.cls-2{fill:#fff}.cls-3{fill:#dbdbdb}.cls-4{fill:#212121}</style></defs><polygon points="250 12.17 44.03 131.09 44.03 368.92 250 487.83 455.96 368.92 455.96 131.09 250 12.17" class="cls-1"/><polygon points="455.96 131.09 250 250 250 250 44.03 131.09 250 12.17 455.96 131.09" class="cls-2"/><polygon points="250 250 250 487.83 44.03 368.92 44.03 131.09 250 250" class="cls-1"/><polygon points="455.96 131.09 455.96 368.92 250 487.83 250 250 250 250 455.96 131.09" class="cls-3"/><path d="M218.6,119.45v15.27H205.93V150H180.58V134.72H167.9V119.45H132.33V241.58H167.9V188.15h12.68v15.26h25.35V188.15H218.6v53.43h35.58V119.45Z" class="cls-4"/><path d="M367.66,150V119.45H271V241.58h96.64V211.05H306.6V150Z" class="cls-4"/><polygon points="332.09 258.42 332.09 304.22 306.6 304.22 306.6 258.42 271.03 258.42 271.03 380.55 306.6 380.55 306.6 334.75 332.09 334.75 332.09 380.55 367.67 380.55 367.67 258.42 332.09 258.42" class="cls-4"/><path d="M165.17,292.77V346.2h78.77V267.42H139.83V371.54H243.94V358.87H152.5V280.09h78.77v53.44H218.6V292.77Zm40.76,40.76H177.84V305.45h28.09Z" class="cls-4"/></svg>