<svg xmlns="http://www.w3.org/2000/svg" id="Layer_1" data-name="Layer 1" viewBox="0 0 1468.98 500"><defs><style>.cls-1{fill:#212121}.cls-2{fill:#3d3d3d}.cls-3{fill:#141414}</style></defs><polygon points="229.1 48.65 54.73 149.33 54.73 350.68 229.1 451.35 403.48 350.68 403.48 149.33 229.1 48.65" class="cls-1"/><polygon points="403.48 149.33 229.11 250 229.1 250 54.73 149.33 229.1 48.65 403.48 149.33" class="cls-2"/><polygon points="229.1 250 229.1 451.35 54.73 350.68 54.73 149.33 229.1 250" class="cls-1"/><polygon points="403.48 149.33 403.48 350.68 229.1 451.35 229.1 250 229.11 250 403.48 149.33" class="cls-3"/><path d="M548.94,81.41V96.68H536.27v15.26H510.92V96.68H498.24V81.41H462.67V203.54h35.57V150.11h12.68v15.26h25.35V150.11h12.67v53.43h35.57V81.41Z" class="cls-1"/><path d="M1180.7,220.38v24.78h-20.56v24.77H1119V245.16h-20.57V220.38h-57.73V418.59h57.73V331.88H1119v24.76h41.15V331.88h20.56v86.71h57.72V220.38Z" class="cls-1"/><path d="M503.79,276.13v86.71H631.63V235h-169V404h169V383.4H483.23V255.55H611.07v86.73H590.5V276.13Zm66.15,66.15H524.35V296.71h45.59Z" class="cls-1"/><path d="M599.67,203.54V81.41h38.17V203.54Z" class="cls-1"/><path d="M654.28,203.54V81.41h38.17v19.08h15.27v19.09h11.45V81.41h38.16V203.54H719.17V184.46H703.9V165.38H692.45v38.16Z" class="cls-1"/><path d="M773.78,203.54V81.41h91.6v30.53H812v15.27h53.43v30.53H812V173h53.43v30.53Z" class="cls-1"/><path d="M882.83,203.54V81.41h99.23v30.53H921V173h61.07v30.53Z" class="cls-1"/><path d="M998.51,203.54V81.41h91.6v68.7h-11.45v7.63h11.45v45.8h-38.17v-45.8h-15.27v45.8Zm53.43-76.33V111.94h-15.27v15.27Z" class="cls-1"/><path d="M1106.56,203.54V81.41h91.59V203.54H1160V169.19h-15.27v34.35Zm61.06-57.25v-22.9H1160v-7.63h15.26V100.49H1160v15.27h-15.27V100.49h-15.27v15.27h15.27v7.63h-7.63v22.9h7.63v-7.63H1160v7.63Z" class="cls-1"/><path d="M1214.6,203.54V81.41h91.6v30.53h-53.43v15.27h53.43v30.53h-53.43v45.8Z" class="cls-1"/><path d="M1349.37,203.54v-91.6h-26.72V81.41h91.6v30.53h-26.72v91.6Z" class="cls-1"/><polygon points="756.97 220.38 756.97 294.71 715.6 294.71 715.6 220.38 657.86 220.38 657.86 418.59 715.6 418.59 715.6 344.26 756.97 344.26 756.97 418.59 814.7 418.59 814.7 220.38 756.97 220.38" class="cls-1"/><path d="M840.56,418.59V220.38H1014V418.59ZM952.05,369V269.93H902.5V369Z" class="cls-1"/><path d="M1265.59,418.59V220.38h148.66v49.55h-86.72v24.78h86.72v49.55h-86.72V369h86.72v49.55Z" class="cls-1"/></svg>