<svg xmlns="http://www.w3.org/2000/svg" id="Layer_1" data-name="Layer 1" viewBox="0 0 500 500"><defs><style>.cls-1{fill:#212121}.cls-2{fill:#3d3d3d}.cls-3{fill:#141414}</style></defs><path d="M177.84,305.45v28.08h28.09V305.45Zm0,0v28.08h28.09V305.45Zm0,0v28.08h28.09V305.45Zm0,0v28.08h28.09V305.45Zm0,0v28.08h28.09V305.45Zm0,0v28.08h28.09V305.45ZM250,12.17,44,131.09V368.92L250,487.83,456,368.92V131.09ZM132.33,119.45H167.9v15.27h12.68V150h25.35V134.72H218.6V119.45h35.58V241.58H218.6V188.15H205.93v15.26H180.58V188.15H167.9v53.43H132.33ZM243.94,346.2H165.17V292.77H218.6v40.76h12.67V280.09H152.5v78.78h91.44v12.67H139.83V267.42H243.94Zm123.72,34.35H332.09v-45.8H306.6v45.8H271V258.42H306.6v45.8h25.49v-45.8h35.57Zm0-139H271V119.45h96.64V150H306.6v61.07h61.06ZM177.84,333.53h28.09V305.45H177.84Zm0-28.08v28.08h28.09V305.45Zm0,0v28.08h28.09V305.45Zm0,0v28.08h28.09V305.45Zm0,0v28.08h28.09V305.45Zm0,0v28.08h28.09V305.45Zm0,0v28.08h28.09V305.45Z" class="cls-1"/><polygon points="218.6 188.15 218.6 231.89 167.9 202.61 167.9 188.15 180.58 188.15 180.58 203.41 205.93 203.41 205.93 188.15 218.6 188.15" class="cls-2"/><polygon points="455.96 131.09 317.48 211.05 306.6 211.05 306.6 149.98 367.66 149.98 367.66 119.45 271.02 119.45 271.02 237.87 250 250.01 249.99 250.01 235.39 241.58 254.18 241.58 254.18 119.45 218.6 119.45 218.6 134.72 205.93 134.72 205.93 149.98 180.58 149.98 180.58 134.72 167.9 134.72 167.9 119.45 132.33 119.45 132.33 182.07 44.03 131.09 249.99 12.17 455.96 131.09" class="cls-2"/><rect width="28.09" height="28.08" x="177.84" y="305.45" class="cls-1"/><path d="M235.39,241.58H218.6v-9.69l-50.7-29.28v39H132.33V182.07l-88.3-51V368.92L250,487.83V250Zm8.55,104.62H165.17V292.77H218.6v40.76h12.67V280.09H152.5v78.78h91.44v12.67H139.83V267.42H243.94Z" class="cls-1"/><path d="M317.48,211.05h50.18v30.53H271v-3.71L250,250h0V487.83L456,368.92V131.09Zm50.18,169.5H332.09v-45.8H306.6v45.8H271V258.42H306.6v45.8h25.49v-45.8h35.57Z" class="cls-3"/></svg>